<?xml version="1.0" encoding="utf-8"?>
<svg version="1.1" width="200" height="200" viewBox="0 0 200 200" xmlns="http://www.w3.org/2000/svg" xmlns:xlink="http://www.w3.org/1999/xlink" xml:space="preserve">
<path id="symbol" fill="white" d="M10.1049252,42.6173286L79.3950729,2.7021978
	c6.1711121-3.5555234,13.7539978-3.6023066,19.962265-0.1403496l0.2475891,0.1403496l69.2847977,39.9151306
	C175.0686646,46.1773682,178.9078369,52.7182922,179,59.8250847v0.2571144v79.8356018
	c0,7.1148071-3.7655945,13.7032623-9.8879547,17.3348999l-0.2223206,0.1299744l-69.2847977,39.9151306
	c-6.1711121,3.5555267-13.7539978,3.6023102-19.962265,0.1403503l-0.2475891-0.1403503l-69.2901459-39.9151306
	C3.9259782,153.8226318,0.0920436,147.2764893,0,140.1747284v-0.2569275V60.0821991
	c0-7.1200752,3.7603757-13.7033844,9.8826132-17.3348999L10.1049252,42.6173286L79.3950729,2.7021978L10.1049252,42.6173286z
	M89.4983978,33.5475502L31.8270359,66.7745743v66.4487076l57.6713638,33.2270355v-66.4487152l57.676712-33.2270279
	L89.4983978,33.5475502z"/>
</svg>
