<?xml version="1.0" encoding="utf-8"?>
<svg version="1.1" width="200" height="200" viewBox="0 0 200 200" xmlns="http://www.w3.org/2000/svg" xmlns:xlink="http://www.w3.org/1999/xlink" xml:space="preserve">
<path id="symbol" d="M10.1049252,42.6173286L79.3950729,2.7021978
	c6.1711121-3.5555234,13.7539978-3.6023066,19.962265-0.1403496l0.2475891,0.1403496l69.2847977,39.9151306
	C175.0686646,46.1773682,178.9078369,52.7182922,179,59.8250847v0.2571144v79.8356018
	c0,7.1148071-3.7655945,13.7032623-9.8879547,17.3348999l-0.2223206,0.1299744l-69.2847977,39.9151306
	c-6.1711121,3.5555267-13.7539978,3.6023102-19.962265,0.1403503l-0.2475891-0.1403503l-69.2901459-39.9151306
	C3.9259782,153.8226318,0.0920436,147.2764893,0,140.1747284v-0.2569275V60.0821991
	c0-7.1200752,3.7603757-13.7033844,9.8826132-17.3348999L10.1049252,42.6173286L79.3950729,2.7021978L10.1049252,42.6173286z
	M89.4983978,33.5475502L31.8270359,66.7745743v66.4487076l57.6713638,33.2270355v-66.4487152l57.676712-33.2270279
	L89.4983978,33.5475502z"/>
<path id="logotype" aria-label="Reason Studios" data-name="Reason Studios" d="M925.8441772,77.1576843h-21.3258057
	c-0.8919067-13.4853592-13.7246094-21.8638344-27.3826904-21.1057816l-1.7705078,0.0930939
	c-14.1905518,0.7979507-22.8167114,8.9237442-22.2975464,18.1400681
	c0.4925537,8.8572388,6.0702515,13.1661682,16.8396606,14.7088699l19.3688965,2.6465378
	c21.512146,3.0588074,34.9172974,13.5119476,36.0488281,33.7133789
	c1.1980591,21.4382629-15.4951172,37.8494263-44.7681885,39.4852295
	c-32.1217651,1.7953796-52.6222534-16.1451874-53.5007935-42.7701187h21.3257446
	c0.5324707,14.3763962,13.7246704,24.7630386,32.3481445,23.7257156l1.7837524-0.0931091
	c14.7097778-0.8245392,22.0979004-8.8838348,21.592041-17.9139633c-0.4658813-8.3252792-5.1916504-13.0464859-17.2124023-14.8551712
	l-21.3390503-3.0854034c-21.5388184-3.2316971-32.6809082-14.6955795-33.7458496-33.6601868
	c-1.0650024-18.9646149,14.9892578-37.4637527,43.9028931-39.0862503
	C904.6248779,35.491394,925.4847412,53.3787689,925.8441772,77.1576843z M1388.5090332,102.3675766h-20.4205322
	c-0.8696289-7.6114426-6.6365967-13.7942886-15.8079834-13.667244l-2.1365967,0.0755005
	c-7.8007812,0.3723755-13.3118896,4.3754272-13.0057373,10.5728302c0.239624,5.3196716,4.4594727,7.9662018,12.5264893,9.3626175
	l12.9260254,2.4071503c15.6015625,2.8194199,25.199585,10.1871567,25.9050293,25.082222
	c0.7321777,15.4270325-11.8609619,27.5691833-34.3980713,28.6331024
	c-23.7885742,1.1171265-39.8427734-11.8761444-39.8427734-30.3354034h20.793335
	c0.3460693,9.2163391,8.8790283,14.642395,18.2906494,14.1902161l1.4110107-0.0664978
	c8.1602783-0.3723755,13.8311768-4.5483093,13.5649414-10.5728302c-0.2445068-4.9752197-3.2132568-7.9993439-10.2167969-9.3126373
	l-13.105835-2.2177429l-1.8475342-0.3625412c-15.7813721-3.2888718-25.520874-10.4363785-26.1875-24.6132889
	c-0.7854004-16.6638565,13.2587891-27.9947433,33.5063477-28.9389801
	C1373.5197754,71.5135117,1388.5090332,84.427002,1388.5090332,102.3675766z M613.4134521,102.3675766h-20.4338989
	c-0.8695679-7.6114426-6.6365356-13.7942886-15.8079224-13.667244l-2.1365967,0.0755005
	c-7.8007812,0.3723755-13.3120117,4.3754272-13.0057983,10.5728302c0.239563,5.3196716,4.4595337,7.9662018,12.5265503,9.3626175
	l12.9259033,2.4071503c15.6016846,2.8194199,25.199585,10.1871567,25.9051514,25.082222
	c0.7321777,15.4270325-11.8609619,27.5691833-34.3981934,28.6331024
	c-23.7751465,1.1171265-39.8427124-11.8761444-39.8427124-30.3354034h20.7932739
	c0.3461914,9.2163391,8.8791504,14.642395,18.2906494,14.1902161l1.4111328-0.0664978
	c8.1602173-0.3723755,13.8444214-4.5483093,13.5515747-10.5728302c-0.239624-5.1467743-3.4078979-8.2055817-10.9424438-9.4423981
	l-12.3668213-2.0879822c-16.866272-3.1119995-27.3427734-10.2536545-28.0350342-24.9758301
	c-0.7854004-16.6638565,13.2720337-27.9947433,33.4929199-28.9389801
	C598.4241943,71.5135117,613.4134521,84.427002,613.4134521,102.3675766z M394.0733643,72.5428696
	c25.2261963,0,39.4433899,17.927269,39.4433899,42.4243393c0,3.0056076-0.1730652,6.0378189-0.359436,9.0434341h-60.9422302
	c1.0649719,15.6265182,12.0872803,24.1512833,22.2177124,24.1512833h1.4243774
	c8.7060242,0,15.2688293-4.9738922,17.0526123-12.4347229h20.2475281
	c-3.7273254,17.7543945-18.3039551,29.1251678-38.7245178,29.1251678c-22.2177124,0-42.1057739-16.1584778-42.1057739-46.1613998
	C352.3270264,90.2972565,369.9121399,72.5428696,394.0733643,72.5428696z M482.0988159,72.5415344
	c14.5632935,0,23.0962524,6.7426758,27.3561096,14.2035141V74.3103256h20.4338684v88.7586441h-20.4338684v-12.4214325
	c-4.446228,7.447525-12.7928162,14.2035065-27.3561096,14.2035065c-19.728363,0-38.5648193-15.8127136-38.5648193-46.1613998
	S461.4785461,72.5415344,482.0988159,72.5415344z M666.5615234,72.5415344
	c25.5855713,0,43.7032471,19.1773987,43.7032471,46.1481094c0,26.9840012-18.1176758,46.1613998-43.7032471,46.1613998
	c-25.399292,0-43.5168457-19.1773987-43.5168457-46.1613998C623.0446777,91.7189331,641.1622314,72.5415344,666.5615234,72.5415344z
	 M1171.0467529,38.8148537v124.2541199h-20.4205322v-11.8894653c-3.9138184,6.9155579-14.7497559,13.6715393-27.1964111,13.6715393
	c-24.1478271,0-38.9108887-19.8822479-38.9108887-46.1613998c0-26.2525558,15.4552002-46.1481094,39.8028564-46.1481094
	c12.4333496,0,22.390625,6.7426758,26.3044434,13.6715469V38.8148537H1171.0467529z M1262.394043,72.5415344
	c25.598999,0,43.7165527,19.1773987,43.7165527,46.1481094c0,26.9840012-18.1175537,46.1613998-43.7165527,46.1613998
	c-25.3991699,0-43.5168457-19.1773987-43.5168457-46.1613998
	C1218.8771973,91.7189331,1236.994873,72.5415344,1262.394043,72.5415344z M1014.9558716,74.3169785v54.4866714
	c0,12.7805176,5.3380737,19.3635864,15.2954712,19.3635864h1.4110107c10.6629639,0,20.0744629-10.4797363,20.0744629-25.0290222
	V74.3169785h20.4338379v88.7586288h-20.4338379V148.513031c-4.4328613,9.2296143-14.0307617,16.3313599-26.996582,16.3313599
	c-20.4472656,0-30.2049561-13.8577271-30.2049561-33.0085144v-57.518898H1014.9558716z M1207.12146,74.3156433v88.7586365h-20.43396
	V74.3156433H1207.12146z M768.3422241,72.5455322c20.953064,0,31.4428711,13.4853516,31.4428711,32.6494446v57.8779755h-20.4338989
	v-54.8457642c0-11.9027557-5.3380737-19.0045013-15.8146362-19.0045013h-1.4243774
	c-11.3684082,0-21.312439,9.9477692-21.312439,24.3241653v49.5261002h-20.4338989V74.3143158h20.4338989v12.7805023
	C746.1245117,78.5700531,755.7224731,72.5455322,768.3422241,72.5455322z M964.1653442,38.8135262v35.495472h20.4205933v16.8766403
	h-20.4205933v45.6161499c0,6.9155579,1.7705078,8.6976318,8.692749,8.6976318h14.4035645v17.5682068h-22.031311
	c-13.8577881,0-21.4988403-7.633728-21.4988403-21.4781494V91.1856384h-10.7427979V74.3089981h10.7427979v-35.495472H964.1653442z
	 M302.9768677,38.8121948c22.031311,0,38.5514526,14.2035065,38.5514526,33.7399826
	c0,15.7861099-7.8274231,26.7978134-20.7932739,31.4126282c13.6846924,0,19.0227966,5.8516312,19.0227966,17.5681992v41.5332947
	h-21.3257751v-36.2003326c0-9.2429199-2.6757202-11.9027481-11.9142151-11.9027481h-38.1920776v48.1030807H247V38.8121948
	H302.9768677z M487.2505493,89.218689h-1.5974731c-11.9141846,0-21.6851807,11.1978989-21.6851807,29.2980652
	c0,18.2863464,9.7709961,29.6438293,21.6851807,29.6438293h1.5974731c11.7278442,0,22.2043762-10.4664307,22.2043762-29.4709396
	C509.4549255,99.6984329,498.9783936,89.218689,487.2505493,89.218689z M667.2803955,89.218689h-1.4244385
	c-13.1522217,0-22.3907471,10.8388214-22.3907471,29.4709549c0,18.6454391,9.2385254,29.4709396,22.3907471,29.4709396h1.4244385
	c13.3252563,0,22.3907471-10.8255005,22.3907471-29.4709396C689.6711426,100.0575104,680.6056519,89.218689,667.2803955,89.218689z
	 M1128.4084473,89.218689h-1.4110107c-12.4466553,0-22.0445557,10.6659393-22.0445557,29.2980652
	c0,18.8183289,9.5979004,29.6438293,22.0445557,29.6438293h1.4110107c11.5415039,0,22.2177734-10.6526184,22.2177734-29.4709396
	C1150.6262207,99.8846283,1139.9499512,89.218689,1128.4084473,89.218689z M1263.112915,89.218689h-1.4110107
	c-13.1523438,0-22.3908691,10.8388214-22.3908691,29.4709549c0,18.6454391,9.2385254,29.4709396,22.3908691,29.4709396h1.4110107
	c13.3253174,0,22.3907471-10.8255005,22.3907471-29.4709396C1285.5036621,100.0575104,1276.4382324,89.218689,1263.112915,89.218689
	z M394.4328003,89.2200165h-1.4243774c-9.5979614,0-18.6633911,6.0378265-20.2608337,19.0045166h40.6947021
	C412.7234497,95.4440308,404.2037964,89.2200165,394.4328003,89.2200165z M297.6387634,57.8167038h-29.3129883v38.3414917
	h29.3129883c14.7496643,0,22.5637817-8.0060959,22.5637817-19.8822556
	C320.2025452,64.0274124,312.3884277,57.8167038,297.6387634,57.8167038z M1197.1640625,38.8188438
	c6.9355469,0,12.380127,5.4260597,12.380127,12.3815231c0,6.9288673-5.4445801,12.3549232-12.380127,12.3549232
	s-12.3934326-5.4260559-12.3934326-12.3549232C1184.7706299,44.2449036,1190.2285156,38.8188438,1197.1640625,38.8188438z"/>
</svg>
